<svg width="7" height="15" viewBox="0 0 7 15" fill="none" xmlns="http://www.w3.org/2000/svg">
<path d="M7 7.19224L1.53275 14.65C1.40364 14.8356 1.22239 14.9479 0.989005 14.987C0.755616 15.026 0.544573 14.9772 0.355876 14.8405C0.167179 14.7135 0.0529675 14.5352 0.0132418 14.3057C-0.026484 14.0761 0.0231733 13.8686 0.162213 13.683L4.86971 7.23619L0.17711 1.34619C0.0380707 1.1606 -0.0165524 0.955472 0.0132418 0.730812C0.043036 0.506151 0.147316 0.320562 0.326082 0.174045C0.514779 0.0372953 0.723339 -0.0188694 0.951762 0.00554943C1.18018 0.0299692 1.36888 0.134974 1.51785 0.320562L7 7.19224Z" fill="#363636"/>
</svg>
