<svg width="68" height="135" viewBox="0 0 68 135" fill="none" xmlns="http://www.w3.org/2000/svg">
<path d="M67.0106 0.653654C67.2838 0.693437 67.4731 0.947212 67.4333 1.22048L66.785 5.67351C66.7452 5.94678 66.4914 6.13605 66.2182 6.09626C65.9449 6.05648 65.7556 5.80271 65.7954 5.52944L66.3717 1.57118L62.4135 0.994878C62.1402 0.955095 61.9509 0.701321 61.9907 0.428056C62.0305 0.154792 62.2843 -0.0344764 62.5575 0.0053068L67.0106 0.653654ZM6.53906 134.069L6.05654 134.2C5.87799 133.543 5.7034 132.889 5.53277 132.24L6.01637 132.113L6.49996 131.986C6.66987 132.632 6.84374 133.283 7.02158 133.938L6.53906 134.069ZM5.04231 128.271L4.55658 128.389C4.23364 127.066 3.92793 125.76 3.63943 124.47L4.12738 124.361L4.61533 124.251C4.90237 125.535 5.20659 126.835 5.52805 128.152L5.04231 128.271ZM3.298 120.46L2.80783 120.559C2.542 119.239 2.2951 117.936 2.06711 116.649L2.55943 116.562L3.05176 116.474C3.27836 117.753 3.52381 119.049 3.78816 120.361L3.298 120.46ZM1.91111 112.611L1.41669 112.685C1.21449 111.342 1.03397 110.018 0.875113 108.711L1.37146 108.65L1.86781 108.59C2.02548 109.887 2.20471 111.203 2.40554 112.536L1.91111 112.611ZM0.951643 104.688L0.45365 104.732C0.332584 103.385 0.235767 102.057 0.16317 100.747L0.662405 100.719L1.16164 100.692C1.23358 101.99 1.32956 103.307 1.44963 104.643L0.951643 104.688ZM0.515708 96.7388L0.0157867 96.7476C-0.00835645 95.3893 -0.00502348 94.0502 0.0257505 92.7293L0.525615 92.741L1.02548 92.7526C0.995032 94.0595 0.991721 95.3849 1.01563 96.7299L0.515708 96.7388ZM0.705998 88.7527L0.207142 88.7189C0.298652 87.3683 0.420442 86.0367 0.572462 84.7226L1.06915 84.7801L1.56584 84.8375C1.41567 86.1355 1.29532 87.4514 1.20486 88.7865L0.705998 88.7527ZM1.62617 80.8316L1.133 80.7492C1.35532 79.4186 1.61029 78.1058 1.89783 76.8094L2.38597 76.9177L2.8741 77.0259C2.59041 78.305 2.33879 79.6005 2.11933 80.914L1.62617 80.8316ZM3.35432 73.0502L2.87279 72.9155C3.23446 71.6219 3.63014 70.344 4.05973 69.0804L4.53312 69.2414L5.00651 69.4023C4.58283 70.6485 4.19258 71.9088 3.83586 73.1848L3.35432 73.0502ZM5.91994 65.503L5.4561 65.3163C5.95514 64.0764 6.48817 62.8494 7.05506 61.634L7.5082 61.8453L7.96134 62.0566C7.40192 63.2561 6.87605 64.4666 6.38378 65.6897L5.91994 65.503ZM9.28763 58.276L8.84603 58.0415C9.46995 56.8666 10.1265 55.7013 10.8156 54.5444L11.2452 54.8002L11.6748 55.0561C10.9938 56.1994 10.3453 57.3504 9.72923 58.5105L9.28763 58.276ZM13.3662 51.4201L12.9488 51.1449C13.6787 50.038 14.4391 48.9376 15.2298 47.8424L15.6352 48.135L16.0406 48.4277C15.2579 49.5119 14.5055 50.6007 13.7836 51.6954L13.3662 51.4201ZM18.0331 44.9471L17.6393 44.639C18.452 43.6002 19.2923 42.5649 20.1602 41.5319L20.5431 41.8535L20.9259 42.1752C20.0652 43.1996 19.2322 44.2259 18.4269 45.2552L18.0331 44.9471ZM23.1543 38.8445L22.7818 38.511C23.6604 37.5296 24.5639 36.5492 25.4924 35.569L25.8554 35.9128L26.2184 36.2566C25.2961 37.2304 24.3989 38.2039 23.5269 39.178L23.1543 38.8445ZM28.6366 33.0506L28.2823 32.6978C29.2135 31.7627 30.1672 30.8268 31.1435 29.8892L31.4899 30.2498L31.8362 30.6105C30.865 31.5432 29.9166 32.4739 28.9909 33.4034L28.6366 33.0506ZM34.3962 27.5142L34.0571 27.1468C35.0211 26.2567 36.0053 25.3644 37.0094 24.469L37.3422 24.8422L37.6749 25.2154C36.6749 26.1071 35.695 26.9956 34.7354 27.8815L34.3962 27.5142ZM40.3393 22.2115L40.0123 21.8333C41.011 20.9698 42.028 20.103 43.0633 19.232L43.3852 19.6146L43.7071 19.9972C42.675 20.8654 41.6614 21.7294 40.6663 22.5897L40.3393 22.2115ZM46.4495 17.0681L46.1322 16.6817C47.1466 15.8485 48.1774 15.0111 49.2246 14.1689L49.538 14.5585L49.8513 14.9481C48.8067 15.7883 47.7785 16.6236 46.7669 17.4545L46.4495 17.0681ZM52.6671 12.0655L52.3573 11.6731C53.3902 10.8576 54.438 10.0372 55.5007 9.21156L55.8075 9.6064L56.1142 10.0012C55.0534 10.8254 54.0077 11.6442 52.977 12.4579L52.6671 12.0655ZM58.9577 7.17625L58.6536 6.77935C59.7035 5.97488 60.7673 5.16501 61.8448 4.34934L62.1466 4.748L62.4483 5.14666C61.3723 5.96124 60.3101 6.76992 59.2618 7.57314L58.9577 7.17625ZM65.3217 2.35702L65.0219 1.95688C65.5579 1.55528 66.0972 1.15221 66.6396 0.747636L66.9386 1.14843L67.2375 1.54923C66.6956 1.95339 66.1569 2.35603 65.6216 2.75716L65.3217 2.35702ZM67.0106 0.653654C67.2838 0.693437 67.4731 0.947212 67.4333 1.22048L66.785 5.67351C66.7452 5.94678 66.4914 6.13605 66.2182 6.09626C65.9449 6.05648 65.7556 5.80271 65.7954 5.52944L66.3717 1.57118L62.4135 0.994878C62.1402 0.955095 61.9509 0.701321 61.9907 0.428056C62.0305 0.154792 62.2843 -0.0344764 62.5575 0.0053068L67.0106 0.653654ZM6.53906 134.069L6.05654 134.2C5.87799 133.543 5.7034 132.889 5.53277 132.24L6.01637 132.113L6.49996 131.986C6.66987 132.632 6.84374 133.283 7.02158 133.938L6.53906 134.069ZM5.04231 128.271L4.55658 128.389C4.23364 127.066 3.92793 125.76 3.63943 124.47L4.12738 124.361L4.61533 124.251C4.90237 125.535 5.20659 126.835 5.52805 128.152L5.04231 128.271ZM3.298 120.46L2.80783 120.559C2.542 119.239 2.2951 117.936 2.06711 116.649L2.55943 116.562L3.05176 116.474C3.27836 117.753 3.52381 119.049 3.78816 120.361L3.298 120.46ZM1.91111 112.611L1.41669 112.685C1.21449 111.342 1.03397 110.018 0.875113 108.711L1.37146 108.65L1.86781 108.59C2.02548 109.887 2.20471 111.203 2.40554 112.536L1.91111 112.611ZM0.951643 104.688L0.45365 104.732C0.332584 103.385 0.235767 102.057 0.16317 100.747L0.662405 100.719L1.16164 100.692C1.23358 101.99 1.32956 103.307 1.44963 104.643L0.951643 104.688ZM0.515708 96.7388L0.0157867 96.7476C-0.00835645 95.3893 -0.00502348 94.0502 0.0257505 92.7293L0.525615 92.741L1.02548 92.7526C0.995032 94.0595 0.991721 95.3849 1.01563 96.7299L0.515708 96.7388ZM0.705998 88.7527L0.207142 88.7189C0.298652 87.3683 0.420442 86.0367 0.572462 84.7226L1.06915 84.7801L1.56584 84.8375C1.41567 86.1355 1.29532 87.4514 1.20486 88.7865L0.705998 88.7527ZM1.62617 80.8316L1.133 80.7492C1.35532 79.4186 1.61029 78.1058 1.89783 76.8094L2.38597 76.9177L2.8741 77.0259C2.59041 78.305 2.33879 79.6005 2.11933 80.914L1.62617 80.8316ZM3.35432 73.0502L2.87279 72.9155C3.23446 71.6219 3.63014 70.344 4.05973 69.0804L4.53312 69.2414L5.00651 69.4023C4.58283 70.6485 4.19258 71.9088 3.83586 73.1848L3.35432 73.0502ZM5.91994 65.503L5.4561 65.3163C5.95514 64.0764 6.48817 62.8494 7.05506 61.634L7.5082 61.8453L7.96134 62.0566C7.40192 63.2561 6.87605 64.4666 6.38378 65.6897L5.91994 65.503ZM9.28763 58.276L8.84603 58.0415C9.46995 56.8666 10.1265 55.7013 10.8156 54.5444L11.2452 54.8002L11.6748 55.0561C10.9938 56.1994 10.3453 57.3504 9.72923 58.5105L9.28763 58.276ZM13.3662 51.4201L12.9488 51.1449C13.6787 50.038 14.4391 48.9376 15.2298 47.8424L15.6352 48.135L16.0406 48.4277C15.2579 49.5119 14.5055 50.6007 13.7836 51.6954L13.3662 51.4201ZM18.0331 44.9471L17.6393 44.639C18.452 43.6002 19.2923 42.5649 20.1602 41.5319L20.5431 41.8535L20.9259 42.1752C20.0652 43.1996 19.2322 44.2259 18.4269 45.2552L18.0331 44.9471ZM23.1543 38.8445L22.7818 38.511C23.6604 37.5296 24.5639 36.5492 25.4924 35.569L25.8554 35.9128L26.2184 36.2566C25.2961 37.2304 24.3989 38.2039 23.5269 39.178L23.1543 38.8445ZM28.6366 33.0506L28.2823 32.6978C29.2135 31.7627 30.1672 30.8268 31.1435 29.8892L31.4899 30.2498L31.8362 30.6105C30.865 31.5432 29.9166 32.4739 28.9909 33.4034L28.6366 33.0506ZM34.3962 27.5142L34.0571 27.1468C35.0211 26.2567 36.0053 25.3644 37.0094 24.469L37.3422 24.8422L37.6749 25.2154C36.6749 26.1071 35.695 26.9956 34.7354 27.8815L34.3962 27.5142ZM40.3393 22.2115L40.0123 21.8333C41.011 20.9698 42.028 20.103 43.0633 19.232L43.3852 19.6146L43.7071 19.9972C42.675 20.8654 41.6614 21.7294 40.6663 22.5897L40.3393 22.2115ZM46.4495 17.0681L46.1322 16.6817C47.1466 15.8485 48.1774 15.0111 49.2246 14.1689L49.538 14.5585L49.8513 14.9481C48.8067 15.7883 47.7785 16.6236 46.7669 17.4545L46.4495 17.0681ZM52.6671 12.0655L52.3573 11.6731C53.3902 10.8576 54.438 10.0372 55.5007 9.21156L55.8075 9.6064L56.1142 10.0012C55.0534 10.8254 54.0077 11.6442 52.977 12.4579L52.6671 12.0655ZM58.9577 7.17625L58.6536 6.77935C59.7035 5.97488 60.7673 5.16501 61.8448 4.34934L62.1466 4.748L62.4483 5.14666C61.3723 5.96124 60.3101 6.76992 59.2618 7.57314L58.9577 7.17625ZM65.3217 2.35702L65.0219 1.95688C65.5579 1.55528 66.0972 1.15221 66.6396 0.747636L66.9386 1.14843L67.2375 1.54923C66.6956 1.95339 66.1569 2.35603 65.6216 2.75716L65.3217 2.35702Z" fill="white"/>
</svg>
