<svg width="131" height="73" viewBox="0 0 131 73" fill="none" xmlns="http://www.w3.org/2000/svg">
<path d="M129.57 71.653C129.536 71.927 129.287 72.1216 129.013 72.0875L124.547 71.533C124.273 71.499 124.078 71.2493 124.112 70.9752C124.146 70.7012 124.396 70.5066 124.67 70.5407L128.64 71.0335L129.133 67.064C129.167 66.79 129.416 66.5954 129.69 66.6294C129.964 66.6635 130.159 66.9132 130.125 67.1872L129.57 71.653ZM0.0390625 1.17188L-0.000136323 0.673414C0.695438 0.618714 1.38641 0.567322 2.07285 0.519246L2.10779 1.01802L2.14272 1.5168C1.45917 1.56468 0.771038 1.61586 0.0782613 1.67034L0.0390625 1.17188ZM6.17995 0.769144L6.15402 0.269817C7.54328 0.197669 8.91365 0.139918 10.2658 0.0966447L10.2818 0.596389L10.2978 1.09613C8.95248 1.13919 7.58873 1.19666 6.20588 1.26847L6.17995 0.769144ZM14.387 0.509121L14.3819 0.00914726C15.7702 -0.00499385 17.1391 -0.00291449 18.4892 0.015482L18.4824 0.515435L18.4755 1.01539C17.1336 0.997104 15.7727 0.995032 14.3921 1.0091L14.387 0.509121ZM22.5699 0.623473L22.5897 0.123865C23.9741 0.178722 25.3386 0.251845 26.6841 0.343345L26.6502 0.842193L26.6163 1.34104C25.2805 1.2502 23.9254 1.17758 22.5501 1.12308L22.5699 0.623473ZM30.742 1.18315L30.7913 0.685589C32.1749 0.82271 33.5382 0.980547 34.8824 1.15923L34.8165 1.65487L34.7506 2.15051C33.4177 1.97333 32.0654 1.81676 30.6927 1.68071L30.742 1.18315ZM38.869 2.2668L38.9526 1.77384C40.3199 2.00573 41.6674 2.2606 42.9966 2.53863L42.8942 3.02803L42.7918 3.51744C41.4754 3.24208 40.1403 2.98956 38.7853 2.75976L38.869 2.2668ZM46.8856 3.94672L47.0076 3.46185C48.349 3.79951 49.6719 4.16224 50.9777 4.55022L50.8353 5.02951L50.6929 5.5088C49.4008 5.12488 48.0915 4.76586 46.7635 4.4316L46.8856 3.94672ZM54.7348 6.28097L54.898 5.80835C56.2012 6.25831 57.4879 6.7349 58.7595 7.23828L58.5755 7.70318L58.3914 8.16808C57.1336 7.67017 55.8609 7.19873 54.5716 6.7536L54.7348 6.28097ZM62.3489 9.29541L62.5535 8.8392C63.8065 9.40117 65.0456 9.99051 66.2725 10.6074L66.0478 11.0541L65.8232 11.5008C64.6094 10.8905 63.3836 10.3075 62.1443 9.75162L62.3489 9.29541ZM69.6665 12.973L69.9101 12.5364C71.1042 13.2029 72.2878 13.8965 73.4623 14.6176L73.2007 15.0437L72.9391 15.4698C71.7762 14.7559 70.6046 14.0692 69.4228 13.4096L69.6665 12.973ZM76.6485 17.2559L76.9267 16.8405C78.059 17.5986 79.184 18.3829 80.3032 19.1937L80.0099 19.5986L79.7166 20.0035C78.607 19.1998 77.4921 18.4225 76.3703 17.6714L76.6485 17.2559ZM83.2866 22.0601L83.5936 21.6655C84.6665 22.5002 85.7352 23.3597 86.8011 24.2442L86.4818 24.629L86.1625 25.0138C85.1044 24.1358 84.0439 23.2828 82.9795 22.4548L83.2866 22.0601ZM89.5995 27.2937L89.9297 26.9182C90.9463 27.8122 91.9614 28.7291 92.9762 29.6692L92.6364 30.036L92.2966 30.4028C91.2879 29.4684 90.2792 28.5572 89.2693 27.6692L89.5995 27.2937ZM95.6051 32.852L95.9533 32.4932C96.9237 33.435 97.8949 34.398 98.8677 35.3823L98.5121 35.7338L98.1565 36.0853C97.1883 35.1057 96.2221 34.1476 95.2569 33.2108L95.6051 32.852ZM101.364 38.6746L101.726 38.3298C102.66 39.3104 103.597 40.3105 104.536 41.3302L104.169 41.669L103.801 42.0079C102.865 40.9919 101.932 39.9958 101.002 39.0195L101.364 38.6746ZM106.932 44.7127L107.304 44.3793C108.202 45.3832 109.105 46.4049 110.011 47.4444L109.635 47.7731L109.258 48.1017C108.354 47.0652 107.454 46.0467 106.559 45.0461L106.932 44.7127ZM112.306 50.8713L112.686 50.5469C113.564 51.5767 114.447 52.623 115.335 53.6858L114.952 54.0064L114.568 54.3271C113.682 53.2666 112.801 52.2229 111.925 51.1957L112.306 50.8713ZM117.575 57.1732L117.962 56.8558C118.816 57.8957 119.675 58.9506 120.541 60.0205L120.152 60.335L119.764 60.6495C118.899 59.5814 118.041 58.5284 117.189 57.4906L117.575 57.1732ZM122.719 63.5279L123.11 63.2159C123.957 64.2775 124.812 65.3531 125.672 66.4429L125.28 66.7528L124.888 67.0627C124.028 65.9743 123.175 64.9 122.328 63.84L122.719 63.5279ZM127.8 69.9585L128.193 69.6504C128.617 70.1916 129.042 70.7362 129.469 71.2841L129.074 71.5913L128.68 71.8986C128.253 71.3513 127.829 70.8073 127.406 70.2666L127.8 69.9585ZM129.57 71.653C129.536 71.927 129.287 72.1216 129.013 72.0875L124.547 71.533C124.273 71.499 124.078 71.2493 124.112 70.9752C124.146 70.7012 124.396 70.5066 124.67 70.5407L128.64 71.0335L129.133 67.064C129.167 66.79 129.416 66.5954 129.69 66.6294C129.964 66.6635 130.159 66.9132 130.125 67.1872L129.57 71.653ZM0.0390625 1.17188L-0.000136323 0.673414C0.695438 0.618714 1.38641 0.567322 2.07285 0.519246L2.10779 1.01802L2.14272 1.5168C1.45917 1.56468 0.771038 1.61586 0.0782613 1.67034L0.0390625 1.17188ZM6.17995 0.769144L6.15402 0.269817C7.54328 0.197669 8.91365 0.139918 10.2658 0.0966447L10.2818 0.596389L10.2978 1.09613C8.95248 1.13919 7.58873 1.19666 6.20588 1.26847L6.17995 0.769144ZM14.387 0.509121L14.3819 0.00914726C15.7702 -0.00499385 17.1391 -0.00291449 18.4892 0.015482L18.4824 0.515435L18.4755 1.01539C17.1336 0.997104 15.7727 0.995032 14.3921 1.0091L14.387 0.509121ZM22.5699 0.623473L22.5897 0.123865C23.9741 0.178722 25.3386 0.251845 26.6841 0.343345L26.6502 0.842193L26.6163 1.34104C25.2805 1.2502 23.9254 1.17758 22.5501 1.12308L22.5699 0.623473ZM30.742 1.18315L30.7913 0.685589C32.1749 0.82271 33.5382 0.980547 34.8824 1.15923L34.8165 1.65487L34.7506 2.15051C33.4177 1.97333 32.0654 1.81676 30.6927 1.68071L30.742 1.18315ZM38.869 2.2668L38.9526 1.77384C40.3199 2.00573 41.6674 2.2606 42.9966 2.53863L42.8942 3.02803L42.7918 3.51744C41.4754 3.24208 40.1403 2.98956 38.7853 2.75976L38.869 2.2668ZM46.8856 3.94672L47.0076 3.46185C48.349 3.79951 49.6719 4.16224 50.9777 4.55022L50.8353 5.02951L50.6929 5.5088C49.4008 5.12488 48.0915 4.76586 46.7635 4.4316L46.8856 3.94672ZM54.7348 6.28097L54.898 5.80835C56.2012 6.25831 57.4879 6.7349 58.7595 7.23828L58.5755 7.70318L58.3914 8.16808C57.1336 7.67017 55.8609 7.19873 54.5716 6.7536L54.7348 6.28097ZM62.3489 9.29541L62.5535 8.8392C63.8065 9.40117 65.0456 9.99051 66.2725 10.6074L66.0478 11.0541L65.8232 11.5008C64.6094 10.8905 63.3836 10.3075 62.1443 9.75162L62.3489 9.29541ZM69.6665 12.973L69.9101 12.5364C71.1042 13.2029 72.2878 13.8965 73.4623 14.6176L73.2007 15.0437L72.9391 15.4698C71.7762 14.7559 70.6046 14.0692 69.4228 13.4096L69.6665 12.973ZM76.6485 17.2559L76.9267 16.8405C78.059 17.5986 79.184 18.3829 80.3032 19.1937L80.0099 19.5986L79.7166 20.0035C78.607 19.1998 77.4921 18.4225 76.3703 17.6714L76.6485 17.2559ZM83.2866 22.0601L83.5936 21.6655C84.6665 22.5002 85.7352 23.3597 86.8011 24.2442L86.4818 24.629L86.1625 25.0138C85.1044 24.1358 84.0439 23.2828 82.9795 22.4548L83.2866 22.0601ZM89.5995 27.2937L89.9297 26.9182C90.9463 27.8122 91.9614 28.7291 92.9762 29.6692L92.6364 30.036L92.2966 30.4028C91.2879 29.4684 90.2792 28.5572 89.2693 27.6692L89.5995 27.2937ZM95.6051 32.852L95.9533 32.4932C96.9237 33.435 97.8949 34.398 98.8677 35.3823L98.5121 35.7338L98.1565 36.0853C97.1883 35.1057 96.2221 34.1476 95.2569 33.2108L95.6051 32.852ZM101.364 38.6746L101.726 38.3298C102.66 39.3104 103.597 40.3105 104.536 41.3302L104.169 41.669L103.801 42.0079C102.865 40.9919 101.932 39.9958 101.002 39.0195L101.364 38.6746ZM106.932 44.7127L107.304 44.3793C108.202 45.3832 109.105 46.4049 110.011 47.4444L109.635 47.7731L109.258 48.1017C108.354 47.0652 107.454 46.0467 106.559 45.0461L106.932 44.7127ZM112.306 50.8713L112.686 50.5469C113.564 51.5767 114.447 52.623 115.335 53.6858L114.952 54.0064L114.568 54.3271C113.682 53.2666 112.801 52.2229 111.925 51.1957L112.306 50.8713ZM117.575 57.1732L117.962 56.8558C118.816 57.8957 119.675 58.9506 120.541 60.0205L120.152 60.335L119.764 60.6495C118.899 59.5814 118.041 58.5284 117.189 57.4906L117.575 57.1732ZM122.719 63.5279L123.11 63.2159C123.957 64.2775 124.812 65.3531 125.672 66.4429L125.28 66.7528L124.888 67.0627C124.028 65.9743 123.175 64.9 122.328 63.84L122.719 63.5279ZM127.8 69.9585L128.193 69.6504C128.617 70.1916 129.042 70.7362 129.469 71.2841L129.074 71.5913L128.68 71.8986C128.253 71.3513 127.829 70.8073 127.406 70.2666L127.8 69.9585Z" fill="white"/>
</svg>
