<svg width="113" height="42" viewBox="0 0 113 42" fill="none" xmlns="http://www.w3.org/2000/svg">
<path d="M112.755 0.604373C112.761 0.32829 112.542 0.0998074 112.266 0.0940405L107.767 6.20758e-05C107.491 -0.00570493 107.262 0.213428 107.256 0.489511C107.251 0.765593 107.47 0.994076 107.746 0.999843L111.745 1.08338L111.662 5.08251C111.656 5.35859 111.875 5.58707 112.151 5.59284C112.427 5.59861 112.656 5.37947 112.661 5.10339L112.755 0.604373ZM0.208008 30.6169L1.71341e-05 31.0716C0.615432 31.3531 1.22678 31.629 1.83414 31.8992L2.03738 31.4424L2.24062 30.9855C1.6365 30.7168 1.02832 30.4424 0.415998 30.1623L0.208008 30.6169ZM5.6667 33.0094L5.47376 33.4707C6.71505 33.9898 7.93961 34.4843 9.14826 34.9543L9.32947 34.4883L9.51068 34.0223C8.31021 33.5555 7.09346 33.0642 5.85963 32.5481L5.6667 33.0094ZM13.0387 35.8712L12.8709 36.3422C14.1459 36.7965 15.4031 37.2222 16.6438 37.6196L16.7963 37.1434L16.9488 36.6672C15.7188 36.2733 14.4718 35.8511 13.2065 35.4002L13.0387 35.8712ZM20.5917 38.2846L20.4566 38.766C21.759 39.1313 23.0433 39.4639 24.3107 39.764L24.4259 39.2774L24.5411 38.7909C23.2875 38.4941 22.0164 38.165 20.7267 37.8032L20.5917 38.2846ZM28.2978 40.1023L28.2051 40.5937C29.5328 40.8442 30.8426 41.0574 32.1361 41.2336L32.2036 40.7382L32.271 40.2427C30.995 40.0689 29.7021 39.8585 28.3905 39.611L28.2978 40.1023ZM36.1393 41.1634L36.0998 41.6619C37.4461 41.7685 38.7757 41.8334 40.0904 41.8568L40.0993 41.3569L40.1083 40.857C38.8144 40.8339 37.5052 40.7701 36.1788 40.665L36.1393 41.1634ZM44.0607 41.2996L44.0844 41.799C45.4244 41.7355 46.7504 41.6276 48.0645 41.4756L48.007 40.9789L47.9496 40.4822C46.6581 40.6316 45.3547 40.7377 44.0371 40.8001L44.0607 41.2996ZM51.9213 40.3893L52.0127 40.8808C53.3219 40.6373 54.6209 40.3492 55.912 40.017L55.7874 39.5328L55.6629 39.0485C54.3934 39.3752 53.1165 39.6584 51.8299 39.8977L51.9213 40.3893ZM59.5873 38.4206L59.7432 38.8957C60.9976 38.484 62.2465 38.0305 63.4921 37.5356L63.3075 37.0709L63.1229 36.6063C61.8957 37.0939 60.6659 37.5404 59.4314 37.9455L59.5873 38.4206ZM66.9431 35.5053L67.1534 35.9589C68.3443 35.4066 69.534 34.8168 70.7245 34.19L70.4916 33.7476L70.2586 33.3052C69.0823 33.9245 67.9077 34.5068 66.7327 35.0517L66.9431 35.5053ZM73.9537 31.8224L74.2062 32.2539C75.3352 31.5934 76.4665 30.9001 77.6019 30.1746L77.3327 29.7533L77.0634 29.332C75.9385 30.0508 74.8183 30.7372 73.7012 31.3908L73.9537 31.8224ZM80.6333 27.5618L80.9168 27.9737C81.9916 27.2341 83.0713 26.4662 84.1575 25.6706L83.862 25.2672L83.5665 24.8639C82.4879 25.6541 81.4161 26.4162 80.3499 27.15L80.6333 27.5618ZM87.0257 22.886L87.3313 23.2817C88.3623 22.4855 89.4001 21.6651 90.4458 20.8208L90.1317 20.4318L89.8176 20.0427C88.7772 20.8828 87.745 21.6987 86.7201 22.4902L87.0257 22.886ZM93.1876 17.916L93.5088 18.2992C94.5069 17.4623 95.5129 16.6046 96.5278 15.7261L96.2005 15.348L95.8733 14.97C94.8621 15.8453 93.8601 16.6997 92.8663 17.5329L93.1876 17.916ZM99.1777 12.7351L99.5099 13.1087C100.485 12.2417 101.469 11.3563 102.462 10.4528L102.126 10.083L101.789 9.71307C100.799 10.6142 99.8175 11.497 98.8454 12.3614L99.1777 12.7351ZM105.051 7.39619L105.391 7.76288C106.346 6.87776 107.31 5.97666 108.284 5.05973L107.941 4.6957L107.598 4.33166C106.626 5.24696 105.664 6.14627 104.711 7.02949L105.051 7.39619ZM110.809 1.97744L111.154 2.33926C111.634 1.88143 112.117 1.41993 112.601 0.95479L112.255 0.593931L111.909 0.233072C111.425 0.697601 110.943 1.15845 110.464 1.61562L110.809 1.97744ZM112.755 0.604373C112.761 0.32829 112.542 0.0998074 112.266 0.0940405L107.767 6.20758e-05C107.491 -0.00570493 107.262 0.213428 107.256 0.489511C107.251 0.765593 107.47 0.994076 107.746 0.999843L111.745 1.08338L111.662 5.08251C111.656 5.35859 111.875 5.58707 112.151 5.59284C112.427 5.59861 112.656 5.37947 112.661 5.10339L112.755 0.604373ZM0.208008 30.6169L1.71341e-05 31.0716C0.615432 31.3531 1.22678 31.629 1.83414 31.8992L2.03738 31.4424L2.24062 30.9855C1.6365 30.7168 1.02832 30.4424 0.415998 30.1623L0.208008 30.6169ZM5.6667 33.0094L5.47376 33.4707C6.71505 33.9898 7.93961 34.4843 9.14826 34.9543L9.32947 34.4883L9.51068 34.0223C8.31021 33.5555 7.09346 33.0642 5.85963 32.5481L5.6667 33.0094ZM13.0387 35.8712L12.8709 36.3422C14.1459 36.7965 15.4031 37.2222 16.6438 37.6196L16.7963 37.1434L16.9488 36.6672C15.7188 36.2733 14.4718 35.8511 13.2065 35.4002L13.0387 35.8712ZM20.5917 38.2846L20.4566 38.766C21.759 39.1313 23.0433 39.4639 24.3107 39.764L24.4259 39.2774L24.5411 38.7909C23.2875 38.4941 22.0164 38.165 20.7267 37.8032L20.5917 38.2846ZM28.2978 40.1023L28.2051 40.5937C29.5328 40.8442 30.8426 41.0574 32.1361 41.2336L32.2036 40.7382L32.271 40.2427C30.995 40.0689 29.7021 39.8585 28.3905 39.611L28.2978 40.1023ZM36.1393 41.1634L36.0998 41.6619C37.4461 41.7685 38.7757 41.8334 40.0904 41.8568L40.0993 41.3569L40.1083 40.857C38.8144 40.8339 37.5052 40.7701 36.1788 40.665L36.1393 41.1634ZM44.0607 41.2996L44.0844 41.799C45.4244 41.7355 46.7504 41.6276 48.0645 41.4756L48.007 40.9789L47.9496 40.4822C46.6581 40.6316 45.3547 40.7377 44.0371 40.8001L44.0607 41.2996ZM51.9213 40.3893L52.0127 40.8808C53.3219 40.6373 54.6209 40.3492 55.912 40.017L55.7874 39.5328L55.6629 39.0485C54.3934 39.3752 53.1165 39.6584 51.8299 39.8977L51.9213 40.3893ZM59.5873 38.4206L59.7432 38.8957C60.9976 38.484 62.2465 38.0305 63.4921 37.5356L63.3075 37.0709L63.1229 36.6063C61.8957 37.0939 60.6659 37.5404 59.4314 37.9455L59.5873 38.4206ZM66.9431 35.5053L67.1534 35.9589C68.3443 35.4066 69.534 34.8168 70.7245 34.19L70.4916 33.7476L70.2586 33.3052C69.0823 33.9245 67.9077 34.5068 66.7327 35.0517L66.9431 35.5053ZM73.9537 31.8224L74.2062 32.2539C75.3352 31.5934 76.4665 30.9001 77.6019 30.1746L77.3327 29.7533L77.0634 29.332C75.9385 30.0508 74.8183 30.7372 73.7012 31.3908L73.9537 31.8224ZM80.6333 27.5618L80.9168 27.9737C81.9916 27.2341 83.0713 26.4662 84.1575 25.6706L83.862 25.2672L83.5665 24.8639C82.4879 25.6541 81.4161 26.4162 80.3499 27.15L80.6333 27.5618ZM87.0257 22.886L87.3313 23.2817C88.3623 22.4855 89.4001 21.6651 90.4458 20.8208L90.1317 20.4318L89.8176 20.0427C88.7772 20.8828 87.745 21.6987 86.7201 22.4902L87.0257 22.886ZM93.1876 17.916L93.5088 18.2992C94.5069 17.4623 95.5129 16.6046 96.5278 15.7261L96.2005 15.348L95.8733 14.97C94.8621 15.8453 93.8601 16.6997 92.8663 17.5329L93.1876 17.916ZM99.1777 12.7351L99.5099 13.1087C100.485 12.2417 101.469 11.3563 102.462 10.4528L102.126 10.083L101.789 9.71307C100.799 10.6142 99.8175 11.497 98.8454 12.3614L99.1777 12.7351ZM105.051 7.39619L105.391 7.76288C106.346 6.87776 107.31 5.97666 108.284 5.05973L107.941 4.6957L107.598 4.33166C106.626 5.24696 105.664 6.14627 104.711 7.02949L105.051 7.39619ZM110.809 1.97744L111.154 2.33926C111.634 1.88143 112.117 1.41993 112.601 0.95479L112.255 0.593931L111.909 0.233072C111.425 0.697601 110.943 1.15845 110.464 1.61562L110.809 1.97744Z" fill="white"/>
</svg>
