<svg width="7" height="15" viewBox="0 0 7 15" fill="none" xmlns="http://www.w3.org/2000/svg">
<path d="M-6.82576e-07 7.80776L5.46725 0.350015C5.59636 0.164426 5.77761 0.0520957 6.011 0.0130243C6.24438 -0.026047 6.45543 0.0227922 6.64412 0.159542C6.83282 0.286524 6.94703 0.464787 6.98676 0.694331C7.02648 0.923876 6.97683 1.13144 6.83779 1.31703L2.13029 7.76381L6.82289 13.6538C6.96193 13.8394 7.01655 14.0445 6.98676 14.2692C6.95696 14.4938 6.85268 14.6794 6.67392 14.826C6.48522 14.9627 6.27666 15.0189 6.04824 14.9945C5.81981 14.97 5.63112 14.865 5.48215 14.6794L-6.82576e-07 7.80776Z" fill="#363636"/>
</svg>
