<svg width="106" height="105" viewBox="0 0 106 105" fill="none" xmlns="http://www.w3.org/2000/svg">
<path d="M103.722 103.977C103.589 104.219 103.285 104.307 103.043 104.173L99.1016 102.002C98.8597 101.869 98.7717 101.565 98.9049 101.323C99.0381 101.081 99.3422 100.993 99.5841 101.126L103.088 103.056L105.018 99.5525C105.151 99.3107 105.455 99.2226 105.697 99.3558C105.939 99.4891 106.027 99.7931 105.894 100.035L103.722 103.977ZM0.046875 0.497803L0.0936566 -3.96851e-06C0.771938 0.0637379 1.44509 0.129793 2.11317 0.198178L2.06226 0.695579L2.01134 1.19298C1.34606 1.12488 0.675664 1.0591 9.33859e-05 0.995609L0.046875 0.497803ZM6.00165 1.13305L6.06123 0.63661C7.4133 0.798899 8.74377 0.971494 10.0531 1.15456L9.98391 1.64974L9.91468 2.14493C8.61194 1.96279 7.2879 1.79103 5.94206 1.62948L6.00165 1.13305ZM13.9272 2.2432L14.007 1.7496C15.3364 1.96439 16.6432 2.1909 17.9278 2.42931L17.8366 2.92092L17.7454 3.41252C16.4686 3.17557 15.1695 2.95039 13.8475 2.7368L13.9272 2.2432ZM21.7636 3.70165L21.8676 3.21257C23.1958 3.49487 24.4993 3.79108 25.7789 4.10144L25.6611 4.58735L25.5432 5.07326C24.2732 4.76522 22.9789 4.47111 21.6597 4.19072L21.7636 3.70165ZM29.519 5.58618L29.652 5.10419C30.9555 5.46389 32.233 5.83972 33.4853 6.23197L33.3359 6.70912L33.1864 7.18626C31.9453 6.79753 30.6788 6.42492 29.386 6.06817L29.519 5.58618ZM37.1144 7.96991L37.2817 7.49872C38.5619 7.95319 39.8145 8.42665 41.0405 8.91942L40.854 9.38335L40.6676 9.84727C39.4546 9.35974 38.2148 8.89112 36.9472 8.4411L37.1144 7.96991ZM44.5248 10.9531L44.7317 10.4978C45.9641 11.0579 47.1681 11.6397 48.345 12.2435L48.1168 12.6884L47.8885 13.1332C46.726 12.5368 45.5362 11.9619 44.318 11.4083L44.5248 10.9531ZM51.6181 14.5968L51.8684 14.164C53.0362 14.8395 54.1758 15.5393 55.2886 16.2638L55.0158 16.6829L54.7429 17.1019C53.645 16.387 52.5204 15.6964 51.3677 15.0296L51.6181 14.5968ZM58.2967 18.9479L58.5919 18.5443C59.6761 19.3374 60.7336 20.1567 61.7658 21.0027L61.4488 21.3894L61.1319 21.7761C60.1139 20.9417 59.0709 20.1336 58.0016 19.3515L58.2967 18.9479ZM64.4619 24.0009L64.7996 23.6322C65.7853 24.5349 66.7468 25.4649 67.6858 26.4226L67.3287 26.7727L66.9717 27.1227C66.0451 26.1776 65.0965 25.2601 64.1242 24.3696L64.4619 24.0009ZM70.0456 29.6924L70.4203 29.3613C71.3012 30.3581 72.1616 31.3821 73.0028 32.4337L72.6124 32.746L72.2219 33.0584C71.3907 32.0193 70.5408 31.0078 69.6709 30.0235L70.0456 29.6924ZM75.0322 35.9191L75.4365 35.625C76.2164 36.6972 76.9797 37.7956 77.7274 38.9206L77.311 39.1974L76.8946 39.4742C76.1544 38.3605 75.3992 37.2737 74.6278 36.2132L75.0322 35.9191ZM79.4536 42.5622L79.8804 42.3017C80.5676 43.4275 81.2418 44.578 81.9041 45.7534L81.4685 45.9989L81.0329 46.2443C80.376 45.0786 79.7077 43.9382 79.0268 42.8227L79.4536 42.5622ZM83.3686 49.5006L83.8117 49.269C84.422 50.4363 85.0225 51.6266 85.6142 52.8402L85.1648 53.0593L84.7154 53.2784C84.1276 52.0729 83.5313 50.8909 82.9255 49.7323L83.3686 49.5006ZM86.8678 56.6686L87.3226 56.4608C87.871 57.6611 88.4123 58.8828 88.9473 60.1262L88.488 60.3238L88.0287 60.5214C87.4965 59.2845 86.9583 58.0696 86.4131 56.8764L86.8678 56.6686ZM90.0285 64.0059L90.4916 63.8174C90.9864 65.0326 91.4762 66.2675 91.9619 67.5221L91.4956 67.7026L91.0293 67.8831C90.5456 66.6336 90.0579 65.4041 89.5655 64.1944L90.0285 64.0059ZM92.906 71.4328L93.3749 71.2595C93.8326 72.4978 94.287 73.7545 94.7388 75.0297L94.2676 75.1967L93.7963 75.3637C93.3459 74.0925 92.893 72.84 92.437 71.6061L92.906 71.4328ZM95.5756 78.9602L96.0488 78.7988C96.4726 80.0413 96.8946 81.3005 97.3153 82.5768L96.8405 82.7334L96.3656 82.8899C95.9459 81.6167 95.525 80.3607 95.1023 79.1217L95.5756 78.9602ZM98.0756 86.5388L98.5518 86.3865C98.9526 87.64 99.3526 88.9092 99.7524 90.1942L99.275 90.3428L98.7976 90.4913C98.3985 89.2086 97.9992 87.9419 97.5993 86.6911L98.0756 86.5388ZM100.444 94.1458L100.922 94.0005C101.307 95.2661 101.691 96.5466 102.077 97.8419L101.597 97.9844L101.118 98.127C100.733 96.8334 100.349 95.5548 99.9654 94.2912L100.444 94.1458ZM102.721 101.797L103.201 101.657C103.388 102.3 103.576 102.946 103.765 103.596L103.284 103.735L102.804 103.875C102.616 103.225 102.428 102.579 102.241 101.937L102.721 101.797ZM103.722 103.977C103.589 104.219 103.285 104.307 103.043 104.173L99.1016 102.002C98.8597 101.869 98.7717 101.565 98.9049 101.323C99.0381 101.081 99.3422 100.993 99.5841 101.126L103.088 103.056L105.018 99.5525C105.151 99.3107 105.455 99.2226 105.697 99.3558C105.939 99.4891 106.027 99.7931 105.894 100.035L103.722 103.977ZM0.046875 0.497803L0.0936566 -3.96851e-06C0.771938 0.0637379 1.44509 0.129793 2.11317 0.198178L2.06226 0.695579L2.01134 1.19298C1.34606 1.12488 0.675664 1.0591 9.33859e-05 0.995609L0.046875 0.497803ZM6.00165 1.13305L6.06123 0.63661C7.4133 0.798899 8.74377 0.971494 10.0531 1.15456L9.98391 1.64974L9.91468 2.14493C8.61194 1.96279 7.2879 1.79103 5.94206 1.62948L6.00165 1.13305ZM13.9272 2.2432L14.007 1.7496C15.3364 1.96439 16.6432 2.1909 17.9278 2.42931L17.8366 2.92092L17.7454 3.41252C16.4686 3.17557 15.1695 2.95039 13.8475 2.7368L13.9272 2.2432ZM21.7636 3.70165L21.8676 3.21257C23.1958 3.49487 24.4993 3.79108 25.7789 4.10144L25.6611 4.58735L25.5432 5.07326C24.2732 4.76522 22.9789 4.47111 21.6597 4.19072L21.7636 3.70165ZM29.519 5.58618L29.652 5.10419C30.9555 5.46389 32.233 5.83972 33.4853 6.23197L33.3359 6.70912L33.1864 7.18626C31.9453 6.79753 30.6788 6.42492 29.386 6.06817L29.519 5.58618ZM37.1144 7.96991L37.2817 7.49872C38.5619 7.95319 39.8145 8.42665 41.0405 8.91942L40.854 9.38335L40.6676 9.84727C39.4546 9.35974 38.2148 8.89112 36.9472 8.4411L37.1144 7.96991ZM44.5248 10.9531L44.7317 10.4978C45.9641 11.0579 47.1681 11.6397 48.345 12.2435L48.1168 12.6884L47.8885 13.1332C46.726 12.5368 45.5362 11.9619 44.318 11.4083L44.5248 10.9531ZM51.6181 14.5968L51.8684 14.164C53.0362 14.8395 54.1758 15.5393 55.2886 16.2638L55.0158 16.6829L54.7429 17.1019C53.645 16.387 52.5204 15.6964 51.3677 15.0296L51.6181 14.5968ZM58.2967 18.9479L58.5919 18.5443C59.6761 19.3374 60.7336 20.1567 61.7658 21.0027L61.4488 21.3894L61.1319 21.7761C60.1139 20.9417 59.0709 20.1336 58.0016 19.3515L58.2967 18.9479ZM64.4619 24.0009L64.7996 23.6322C65.7853 24.5349 66.7468 25.4649 67.6858 26.4226L67.3287 26.7727L66.9717 27.1227C66.0451 26.1776 65.0965 25.2601 64.1242 24.3696L64.4619 24.0009ZM70.0456 29.6924L70.4203 29.3613C71.3012 30.3581 72.1616 31.3821 73.0028 32.4337L72.6124 32.746L72.2219 33.0584C71.3907 32.0193 70.5408 31.0078 69.6709 30.0235L70.0456 29.6924ZM75.0322 35.9191L75.4365 35.625C76.2164 36.6972 76.9797 37.7956 77.7274 38.9206L77.311 39.1974L76.8946 39.4742C76.1544 38.3605 75.3992 37.2737 74.6278 36.2132L75.0322 35.9191ZM79.4536 42.5622L79.8804 42.3017C80.5676 43.4275 81.2418 44.578 81.9041 45.7534L81.4685 45.9989L81.0329 46.2443C80.376 45.0786 79.7077 43.9382 79.0268 42.8227L79.4536 42.5622ZM83.3686 49.5006L83.8117 49.269C84.422 50.4363 85.0225 51.6266 85.6142 52.8402L85.1648 53.0593L84.7154 53.2784C84.1276 52.0729 83.5313 50.8909 82.9255 49.7323L83.3686 49.5006ZM86.8678 56.6686L87.3226 56.4608C87.871 57.6611 88.4123 58.8828 88.9473 60.1262L88.488 60.3238L88.0287 60.5214C87.4965 59.2845 86.9583 58.0696 86.4131 56.8764L86.8678 56.6686ZM90.0285 64.0059L90.4916 63.8174C90.9864 65.0326 91.4762 66.2675 91.9619 67.5221L91.4956 67.7026L91.0293 67.8831C90.5456 66.6336 90.0579 65.4041 89.5655 64.1944L90.0285 64.0059ZM92.906 71.4328L93.3749 71.2595C93.8326 72.4978 94.287 73.7545 94.7388 75.0297L94.2676 75.1967L93.7963 75.3637C93.3459 74.0925 92.893 72.84 92.437 71.6061L92.906 71.4328ZM95.5756 78.9602L96.0488 78.7988C96.4726 80.0413 96.8946 81.3005 97.3153 82.5768L96.8405 82.7334L96.3656 82.8899C95.9459 81.6167 95.525 80.3607 95.1023 79.1217L95.5756 78.9602ZM98.0756 86.5388L98.5518 86.3865C98.9526 87.64 99.3526 88.9092 99.7524 90.1942L99.275 90.3428L98.7976 90.4913C98.3985 89.2086 97.9992 87.9419 97.5993 86.6911L98.0756 86.5388ZM100.444 94.1458L100.922 94.0005C101.307 95.2661 101.691 96.5466 102.077 97.8419L101.597 97.9844L101.118 98.127C100.733 96.8334 100.349 95.5548 99.9654 94.2912L100.444 94.1458ZM102.721 101.797L103.201 101.657C103.388 102.3 103.576 102.946 103.765 103.596L103.284 103.735L102.804 103.875C102.616 103.225 102.428 102.579 102.241 101.937L102.721 101.797Z" fill="white"/>
</svg>
