<svg width="18" height="18" viewBox="0 0 18 18" fill="none" xmlns="http://www.w3.org/2000/svg">
<path d="M1.87481 6.645L8.62481 10.545C8.73882 10.6108 8.86816 10.6455 8.99981 10.6455C9.13146 10.6455 9.26079 10.6108 9.37481 10.545L16.1248 6.645C16.2382 6.57956 16.3324 6.4856 16.3982 6.37244C16.464 6.25929 16.499 6.13089 16.4998 6C16.5003 5.86785 16.4659 5.7379 16.4001 5.62331C16.3342 5.50873 16.2393 5.41358 16.1248 5.3475L9.37481 1.455C9.26079 1.38918 9.13146 1.35452 8.99981 1.35452C8.86816 1.35452 8.73882 1.38918 8.62481 1.455L1.87481 5.3475C1.76036 5.41358 1.6654 5.50873 1.59954 5.62331C1.53369 5.7379 1.49928 5.86785 1.49981 6C1.5006 6.13089 1.53563 6.25929 1.60142 6.37244C1.6672 6.4856 1.76146 6.57956 1.87481 6.645ZM8.99981 3L14.2498 6L8.99981 9L3.74981 6L8.99981 3ZM15.3748 8.3775L8.99981 12L2.62481 8.3475C2.53921 8.29791 2.44464 8.26575 2.34656 8.25286C2.24848 8.23997 2.14881 8.24662 2.05331 8.27241C1.9578 8.29821 1.86834 8.34264 1.79008 8.40315C1.71182 8.46367 1.64631 8.53906 1.59731 8.625C1.49953 8.79722 1.47383 9.00111 1.52582 9.1922C1.57781 9.38329 1.70326 9.54606 1.87481 9.645L8.62481 13.545C8.73882 13.6108 8.86816 13.6455 8.99981 13.6455C9.13146 13.6455 9.26079 13.6108 9.37481 13.545L16.1248 9.645C16.2964 9.54606 16.4218 9.38329 16.4738 9.1922C16.5258 9.00111 16.5001 8.79722 16.4023 8.625C16.3533 8.53906 16.2878 8.46367 16.2095 8.40315C16.1313 8.34264 16.0418 8.29821 15.9463 8.27241C15.8508 8.24662 15.7511 8.23997 15.6531 8.25286C15.555 8.26575 15.4604 8.29791 15.3748 8.3475V8.3775ZM15.3748 11.3775L8.99981 15L2.62481 11.3475C2.53921 11.2979 2.44464 11.2657 2.34656 11.2529C2.24848 11.24 2.14881 11.2466 2.05331 11.2724C1.9578 11.2982 1.86834 11.3426 1.79008 11.4032C1.71182 11.4637 1.64631 11.5391 1.59731 11.625C1.49953 11.7972 1.47383 12.0011 1.52582 12.1922C1.57781 12.3833 1.70326 12.5461 1.87481 12.645L8.62481 16.545C8.73882 16.6108 8.86816 16.6455 8.99981 16.6455C9.13146 16.6455 9.26079 16.6108 9.37481 16.545L16.1248 12.645C16.2964 12.5461 16.4218 12.3833 16.4738 12.1922C16.5258 12.0011 16.5001 11.7972 16.4023 11.625C16.3533 11.5391 16.2878 11.4637 16.2095 11.4032C16.1313 11.3426 16.0418 11.2982 15.9463 11.2724C15.8508 11.2466 15.7511 11.24 15.6531 11.2529C15.555 11.2657 15.4604 11.2979 15.3748 11.3475V11.3775Z" fill="white"/>
</svg>
