<svg width="30" height="30" viewBox="0 0 30 30" fill="none" xmlns="http://www.w3.org/2000/svg">
<path d="M27.5 1.25003H18.75C18.0343 1.24709 17.3405 1.49591 16.7897 1.95294C16.239 2.40997 15.8665 3.0461 15.7375 3.75003L14.5875 10.0625C14.508 10.5023 14.5262 10.9542 14.6406 11.3862C14.7551 11.8182 14.9632 12.2198 15.25 12.5625C15.5384 12.9054 15.898 13.1814 16.3038 13.3714C16.7096 13.5613 17.1519 13.6607 17.6 13.6625H21.25L20.9375 14.4875C20.7068 15.0992 20.6267 15.7575 20.7039 16.4067C20.7811 17.0559 21.0133 17.677 21.3811 18.2176C21.7488 18.7581 22.2412 19.2023 22.8166 19.5125C23.3921 19.8227 24.0338 19.9899 24.6875 20C24.9301 20.0019 25.168 19.9332 25.3722 19.8023C25.5764 19.6713 25.738 19.4838 25.8375 19.2625L28.6375 12.9375C28.7013 12.7997 28.7394 12.6515 28.75 12.5V2.50003C28.75 2.16851 28.6183 1.85056 28.3839 1.61614C28.1495 1.38172 27.8315 1.25003 27.5 1.25003ZM26.25 12.1625L23.9625 17.325C23.7392 17.2035 23.5468 17.0325 23.4 16.825C23.2529 16.6168 23.1599 16.3752 23.1293 16.1221C23.0988 15.869 23.1317 15.6123 23.225 15.375L23.7 14.125C23.825 13.8008 23.8675 13.4507 23.8239 13.106C23.7803 12.7613 23.6518 12.4329 23.45 12.15C23.2513 11.8683 22.987 11.6391 22.6799 11.4823C22.3729 11.3255 22.0323 11.2458 21.6875 11.25H17.575C17.492 11.2503 17.4099 11.2325 17.3343 11.198C17.2588 11.1635 17.1917 11.113 17.1375 11.05C17.0405 10.9167 17 10.7505 17.025 10.5875L18.175 4.33753C18.1696 4.26005 18.1807 4.18232 18.2075 4.10944C18.2343 4.03656 18.2763 3.97019 18.3306 3.91469C18.3849 3.85919 18.4504 3.81582 18.5227 3.78744C18.595 3.75906 18.6724 3.74631 18.75 3.75003H26.25V12.1625ZM12.425 16.3125H8.8125L9.125 15.4875C9.35237 14.8722 9.42785 14.2111 9.34502 13.5604C9.26219 12.9097 9.0235 12.2886 8.64923 11.7499C8.27496 11.2112 7.77617 10.7708 7.19525 10.4662C6.61433 10.1615 5.96846 10.0016 5.3125 10C5.06992 9.99811 4.83203 10.0668 4.62783 10.1978C4.42363 10.3287 4.26195 10.5163 4.1625 10.7375L1.3625 17.0625C1.29087 17.2196 1.25256 17.3899 1.25 17.5625V27.5625C1.25 27.894 1.3817 28.212 1.61612 28.4464C1.85054 28.6808 2.16848 28.8125 2.5 28.8125H11.25C11.9657 28.8155 12.6595 28.5666 13.2103 28.1096C13.761 27.6526 14.1335 27.0165 14.2625 26.3125L15.4125 20.0625C15.492 19.6227 15.4738 19.1708 15.3594 18.7388C15.2449 18.3068 15.0368 17.9052 14.75 17.5625C14.479 17.1953 14.1299 16.8927 13.7278 16.6765C13.3258 16.4604 12.8808 16.3361 12.425 16.3125V16.3125ZM11.825 25.7875C11.8035 25.9222 11.7328 26.0441 11.6266 26.1295C11.5203 26.215 11.3861 26.2579 11.25 26.25H3.75V17.8375L6.0375 12.675C6.26076 12.7965 6.45319 12.9676 6.6 13.175C6.7471 13.3833 6.84012 13.6248 6.87066 13.8779C6.90121 14.131 6.86834 14.3878 6.775 14.625L6.3 15.875C6.17504 16.1992 6.13247 16.5493 6.1761 16.894C6.21973 17.2387 6.3482 17.5672 6.55 17.85C6.74594 18.1364 7.00901 18.3704 7.31625 18.5317C7.62348 18.6929 7.96553 18.7765 8.3125 18.775H12.425C12.508 18.7748 12.5901 18.7925 12.6657 18.8271C12.7412 18.8616 12.8083 18.9121 12.8625 18.975C12.9595 19.1083 13 19.2746 12.975 19.4375L11.825 25.7875Z" fill="white"/>
</svg>
