<svg width="28" height="28" fill="none" version="1.1" viewBox="0 0 28 28" xmlns="http://www.w3.org/2000/svg"><g fill="#fff"><path d="m9.4473 12.096-9.4473 9.4453 1.2773 5.1816 5.1816 1.2773 9.4453-9.4473c-1.0254-0.29595-2.0093-0.76862-2.9062-1.418l-7.4824 7.4824-1.7109-0.42188-0.42188-1.7109 7.4824-7.4824c-0.64935-0.89698-1.122-1.8808-1.418-2.9062z"/><path d="m23.066 4.9343c-2.5009-2.5009-6.5557-2.5009-9.0566 0-2.501 2.5009-2.501 6.5557 0 9.0566 2.5009 2.5009 6.5557 2.5009 9.0566 0s2.5009-6.5557 0-9.0566zm-11.219-2.1628c3.6954-3.6954 9.6868-3.6954 13.382 0 3.6953 3.6954 3.6953 9.6868 0 13.382-3.6954 3.6954-9.6868 3.6954-13.382 0s-3.6954-9.6868 0-13.382z" clip-rule="evenodd" fill-rule="evenodd"/><path d="m20.942 10.328c-0.9029 0.9029-2.3668 0.9029-3.2697 0-0.9029-0.90291-0.9029-2.3668 0-3.2697s2.3668-0.90289 3.2697 0c0.9028 0.90289 0.9028 2.3668 0 3.2697z"/></g></svg>
