<svg width="24" height="24" viewBox="0 0 24 24" fill="none" xmlns="http://www.w3.org/2000/svg">
<path d="M21.2104 4.15892C21.2104 4.15892 23.1528 3.37978 22.9903 5.27183C22.9368 6.05097 22.4514 8.77822 22.0734 11.7276L20.7784 20.4653C20.7784 20.4653 20.6704 21.7454 19.6989 21.968C18.7279 22.1902 17.2709 21.1889 17.0009 20.9662C16.7849 20.7991 12.954 18.2945 11.605 17.0705C11.227 16.7362 10.795 16.0687 11.659 15.2896L17.3244 9.72398C17.9719 9.05644 18.6194 7.49817 15.9214 9.39021L8.36656 14.677C8.36656 14.677 7.50307 15.234 5.88459 14.7331L2.37664 13.6197C2.37664 13.6197 1.08166 12.785 3.29413 11.9503C8.69055 9.33467 15.328 6.66348 21.2094 4.15892H21.2104Z" fill="white"/>
</svg>
