<svg width="30" height="30" viewBox="0 0 30 30" fill="none" xmlns="http://www.w3.org/2000/svg">
<path d="M11.25 15.0001H8.75001C8.41849 15.0001 8.10055 15.1318 7.86613 15.3662C7.63171 15.6006 7.50001 15.9186 7.50001 16.2501C7.50001 16.5816 7.63171 16.8995 7.86613 17.134C8.10055 17.3684 8.41849 17.5001 8.75001 17.5001H11.25C11.5815 17.5001 11.8995 17.3684 12.1339 17.134C12.3683 16.8995 12.5 16.5816 12.5 16.2501C12.5 15.9186 12.3683 15.6006 12.1339 15.3662C11.8995 15.1318 11.5815 15.0001 11.25 15.0001ZM10 12.5001H15C15.3315 12.5001 15.6495 12.3684 15.8839 12.134C16.1183 11.8995 16.25 11.5816 16.25 11.2501C16.25 10.9186 16.1183 10.6006 15.8839 10.3662C15.6495 10.1318 15.3315 10.0001 15 10.0001H10C9.66849 10.0001 9.35055 10.1318 9.11613 10.3662C8.88171 10.6006 8.75001 10.9186 8.75001 11.2501C8.75001 11.5816 8.88171 11.8995 9.11613 12.134C9.35055 12.3684 9.66849 12.5001 10 12.5001ZM11.25 20.0001H8.75001C8.41849 20.0001 8.10055 20.1318 7.86613 20.3662C7.63171 20.6006 7.50001 20.9186 7.50001 21.2501C7.50001 21.5816 7.63171 21.8995 7.86613 22.134C8.10055 22.3684 8.41849 22.5001 8.75001 22.5001H11.25C11.5815 22.5001 11.8995 22.3684 12.1339 22.134C12.3683 21.8995 12.5 21.5816 12.5 21.2501C12.5 20.9186 12.3683 20.6006 12.1339 20.3662C11.8995 20.1318 11.5815 20.0001 11.25 20.0001ZM26.25 15.0001H22.5V3.75009C22.5009 3.52982 22.4435 3.31324 22.3338 3.12227C22.224 2.9313 22.0658 2.77272 21.875 2.66259C21.685 2.55288 21.4694 2.49512 21.25 2.49512C21.0306 2.49512 20.815 2.55288 20.625 2.66259L16.875 4.81259L13.125 2.66259C12.935 2.55288 12.7194 2.49512 12.5 2.49512C12.2806 2.49512 12.065 2.55288 11.875 2.66259L8.12501 4.81259L4.37501 2.66259C4.18499 2.55288 3.96943 2.49512 3.75001 2.49512C3.53059 2.49512 3.31503 2.55288 3.12501 2.66259C2.93425 2.77272 2.77599 2.9313 2.66623 3.12227C2.55648 3.31324 2.49914 3.52982 2.50001 3.75009V23.7501C2.50001 24.7446 2.8951 25.6985 3.59836 26.4017C4.30162 27.105 5.25545 27.5001 6.25001 27.5001H23.75C24.7446 27.5001 25.6984 27.105 26.4017 26.4017C27.1049 25.6985 27.5 24.7446 27.5 23.7501V16.2501C27.5 15.9186 27.3683 15.6006 27.1339 15.3662C26.8995 15.1318 26.5815 15.0001 26.25 15.0001ZM6.25001 25.0001C5.91849 25.0001 5.60055 24.8684 5.36613 24.634C5.13171 24.3995 5.00001 24.0816 5.00001 23.7501V5.91259L7.50001 7.33758C7.69293 7.43835 7.90736 7.49098 8.12501 7.49098C8.34266 7.49098 8.55709 7.43835 8.75001 7.33758L12.5 5.18759L16.25 7.33758C16.4429 7.43835 16.6574 7.49098 16.875 7.49098C17.0927 7.49098 17.3071 7.43835 17.5 7.33758L20 5.91259V23.7501C20.0034 24.1765 20.0795 24.5992 20.225 25.0001H6.25001ZM25 23.7501C25 24.0816 24.8683 24.3995 24.6339 24.634C24.3995 24.8684 24.0815 25.0001 23.75 25.0001C23.4185 25.0001 23.1005 24.8684 22.8661 24.634C22.6317 24.3995 22.5 24.0816 22.5 23.7501V17.5001H25V23.7501ZM16.95 20.2126C16.8803 20.1653 16.8047 20.1274 16.725 20.1001C16.6506 20.062 16.5703 20.0367 16.4875 20.0251C16.2867 19.9849 16.0791 19.9946 15.8829 20.0535C15.6867 20.1123 15.508 20.2185 15.3625 20.3626C15.1341 20.6021 15.0046 20.9191 15 21.2501C14.998 21.4126 15.0277 21.5739 15.0875 21.7251C15.1555 21.877 15.2484 22.0164 15.3625 22.1376C15.484 22.248 15.6235 22.3368 15.775 22.4001C15.9246 22.4662 16.0864 22.5004 16.25 22.5004C16.4136 22.5004 16.5754 22.4662 16.725 22.4001C16.8765 22.3368 17.016 22.248 17.1375 22.1376C17.2534 22.0208 17.345 21.8823 17.4072 21.73C17.4694 21.5777 17.501 21.4146 17.5 21.2501C17.4954 20.9191 17.3659 20.6021 17.1375 20.3626C17.0781 20.3088 17.0155 20.2587 16.95 20.2126ZM17.125 15.3626C16.9791 15.2204 16.8006 15.1161 16.6051 15.0587C16.4096 15.0013 16.203 14.9926 16.0034 15.0333C15.8038 15.0739 15.6171 15.1628 15.4597 15.2921C15.3022 15.4214 15.1787 15.5872 15.1 15.7751C15.0222 15.9645 14.9921 16.17 15.0124 16.3738C15.0326 16.5775 15.1026 16.7731 15.2162 16.9435C15.3297 17.1138 15.4834 17.2537 15.6637 17.3507C15.8439 17.4478 16.0453 17.4991 16.25 17.5001C16.5815 17.5001 16.8995 17.3684 17.1339 17.134C17.3683 16.8995 17.5 16.5816 17.5 16.2501C17.498 16.0867 17.4641 15.9254 17.4 15.7751C17.3398 15.619 17.2459 15.4782 17.125 15.3626Z" fill="white"/>
</svg>
