<svg width="30" height="30" viewBox="0 0 30 30" fill="none" xmlns="http://www.w3.org/2000/svg">
<path d="M23.75 8.125H20V6.875C20 5.88044 19.6049 4.92661 18.9017 4.22335C18.1984 3.52009 17.2446 3.125 16.25 3.125H13.75C12.7554 3.125 11.8016 3.52009 11.0983 4.22335C10.3951 4.92661 10 5.88044 10 6.875V8.125H6.25C5.25544 8.125 4.30161 8.52009 3.59835 9.22335C2.89509 9.92661 2.5 10.8804 2.5 11.875V23.125C2.5 24.1196 2.89509 25.0734 3.59835 25.7767C4.30161 26.4799 5.25544 26.875 6.25 26.875H23.75C24.7446 26.875 25.6984 26.4799 26.4017 25.7767C27.1049 25.0734 27.5 24.1196 27.5 23.125V11.875C27.5 10.8804 27.1049 9.92661 26.4017 9.22335C25.6984 8.52009 24.7446 8.125 23.75 8.125ZM12.5 6.875C12.5 6.54348 12.6317 6.22554 12.8661 5.99112C13.1005 5.7567 13.4185 5.625 13.75 5.625H16.25C16.5815 5.625 16.8995 5.7567 17.1339 5.99112C17.3683 6.22554 17.5 6.54348 17.5 6.875V8.125H12.5V6.875ZM25 23.125C25 23.4565 24.8683 23.7745 24.6339 24.0089C24.3995 24.2433 24.0815 24.375 23.75 24.375H6.25C5.91848 24.375 5.60054 24.2433 5.36612 24.0089C5.1317 23.7745 5 23.4565 5 23.125V16.25C8.18283 17.5127 11.5759 18.1616 15 18.1625C18.424 18.1604 21.8168 17.5115 25 16.25V23.125ZM25 13.5125C21.848 14.8972 18.4428 15.6122 15 15.6122C11.5572 15.6122 8.152 14.8972 5 13.5125V11.875C5 11.5435 5.1317 11.2255 5.36612 10.9911C5.60054 10.7567 5.91848 10.625 6.25 10.625H23.75C24.0815 10.625 24.3995 10.7567 24.6339 10.9911C24.8683 11.2255 25 11.5435 25 11.875V13.5125Z" fill="white"/>
</svg>
