<svg width="44" height="44" viewBox="0 0 44 44" fill="none" xmlns="http://www.w3.org/2000/svg">
<path d="M20.6986 21.01C20.869 21.1818 21.0718 21.3182 21.2952 21.4113C21.5186 21.5044 21.7582 21.5523 22.0002 21.5523C22.2423 21.5523 22.4819 21.5044 22.7053 21.4113C22.9287 21.3182 23.1315 21.1818 23.3019 21.01L28.8019 15.51C29.1569 15.1648 29.3601 14.6927 29.367 14.1976C29.3739 13.7025 29.1838 13.2249 28.8386 12.87C28.4934 12.515 28.0213 12.3118 27.5262 12.3049C27.0311 12.298 26.5535 12.4881 26.1986 12.8333L22.0002 17.1233L17.8019 12.8333C17.6315 12.6615 17.4287 12.5251 17.2053 12.432C16.9819 12.339 16.7423 12.291 16.5002 12.291C16.2582 12.291 16.0186 12.339 15.7952 12.432C15.5718 12.5251 15.369 12.6615 15.1986 12.8333C15.0267 13.0038 14.8904 13.2065 14.7973 13.4299C14.7042 13.6533 14.6563 13.893 14.6563 14.135C14.6563 14.377 14.7042 14.6166 14.7973 14.8401C14.8904 15.0635 15.0267 15.2662 15.1986 15.4367L20.6986 21.01ZM26.1986 22.99L22.0002 27.2067L17.8019 22.99C17.6315 22.8182 17.4287 22.6818 17.2053 22.5887C16.9819 22.4956 16.7423 22.4477 16.5002 22.4477C16.2582 22.4477 16.0186 22.4956 15.7952 22.5887C15.5718 22.6818 15.369 22.8182 15.1986 22.99C15.0267 23.1604 14.8904 23.3632 14.7973 23.5866C14.7042 23.81 14.6563 24.0496 14.6563 24.2917C14.6563 24.5337 14.7042 24.7733 14.7973 24.9967C14.8904 25.2201 15.0267 25.4229 15.1986 25.5933L20.6986 31.0933C20.869 31.2652 21.0718 31.4016 21.2952 31.4946C21.5186 31.5877 21.7582 31.6356 22.0002 31.6356C22.2423 31.6356 22.4819 31.5877 22.7053 31.4946C22.9287 31.4016 23.1315 31.2652 23.3019 31.0933L28.8019 25.5933C29.1471 25.2481 29.3411 24.7799 29.3411 24.2917C29.3411 23.8034 29.1471 23.3352 28.8019 22.99C28.4567 22.6448 27.9885 22.4508 27.5002 22.4508C27.012 22.4508 26.5438 22.6448 26.1986 22.99V22.99Z" fill="white"/>
</svg>
