<svg width="18" height="18" viewBox="0 0 18 18" fill="none" xmlns="http://www.w3.org/2000/svg">
<path d="M1.8753 6.64497L8.6253 10.545C8.73931 10.6108 8.86865 10.6455 9.0003 10.6455C9.13195 10.6455 9.26128 10.6108 9.3753 10.545L16.1253 6.64497C16.2387 6.57953 16.3329 6.48557 16.3987 6.37241C16.4645 6.25926 16.4995 6.13086 16.5003 5.99997C16.5008 5.86782 16.4664 5.73787 16.4006 5.62328C16.3347 5.5087 16.2398 5.41355 16.1253 5.34747L9.3753 1.45497C9.26128 1.38915 9.13195 1.35449 9.0003 1.35449C8.86865 1.35449 8.73931 1.38915 8.6253 1.45497L1.8753 5.34747C1.76084 5.41355 1.66588 5.5087 1.60003 5.62328C1.53418 5.73787 1.49977 5.86782 1.5003 5.99997C1.50109 6.13086 1.53612 6.25926 1.6019 6.37241C1.66769 6.48557 1.76194 6.57953 1.8753 6.64497ZM9.0003 2.99997L14.2503 5.99997L9.0003 8.99997L3.7503 5.99997L9.0003 2.99997ZM15.3753 8.37747L9.0003 12L2.6253 8.34747C2.5397 8.29788 2.44513 8.26572 2.34705 8.25283C2.24896 8.23994 2.1493 8.24659 2.05379 8.27238C1.95829 8.29818 1.86883 8.34261 1.79057 8.40312C1.71231 8.46363 1.6468 8.53903 1.5978 8.62497C1.50002 8.79719 1.47432 9.00108 1.52631 9.19217C1.57829 9.38326 1.70375 9.54603 1.8753 9.64497L8.6253 13.545C8.73931 13.6108 8.86865 13.6455 9.0003 13.6455C9.13195 13.6455 9.26128 13.6108 9.3753 13.545L16.1253 9.64497C16.2968 9.54603 16.4223 9.38326 16.4743 9.19217C16.5263 9.00108 16.5006 8.79719 16.4028 8.62497C16.3538 8.53903 16.2883 8.46363 16.21 8.40312C16.1318 8.34261 16.0423 8.29818 15.9468 8.27238C15.8513 8.24659 15.7516 8.23994 15.6535 8.25283C15.5555 8.26572 15.4609 8.29788 15.3753 8.34747V8.37747ZM15.3753 11.3775L9.0003 15L2.6253 11.3475C2.5397 11.2979 2.44513 11.2657 2.34705 11.2528C2.24896 11.2399 2.1493 11.2466 2.05379 11.2724C1.95829 11.2982 1.86883 11.3426 1.79057 11.4031C1.71231 11.4636 1.6468 11.539 1.5978 11.625C1.50002 11.7972 1.47432 12.0011 1.52631 12.1922C1.57829 12.3833 1.70375 12.546 1.8753 12.645L8.6253 16.545C8.73931 16.6108 8.86865 16.6455 9.0003 16.6455C9.13195 16.6455 9.26128 16.6108 9.3753 16.545L16.1253 12.645C16.2968 12.546 16.4223 12.3833 16.4743 12.1922C16.5263 12.0011 16.5006 11.7972 16.4028 11.625C16.3538 11.539 16.2883 11.4636 16.21 11.4031C16.1318 11.3426 16.0423 11.2982 15.9468 11.2724C15.8513 11.2466 15.7516 11.2399 15.6535 11.2528C15.5555 11.2657 15.4609 11.2979 15.3753 11.3475V11.3775Z" fill="black"/>
</svg>
