<svg width="24" height="24" viewBox="0 0 24 24" fill="none" xmlns="http://www.w3.org/2000/svg">
<path d="M19.4116 13C19.1916 13 18.9616 12.93 18.7416 12.88C18.2965 12.7805 17.8588 12.6501 17.4316 12.49C16.9677 12.3212 16.4578 12.33 15.9999 12.5146C15.5421 12.6992 15.1687 13.0466 14.9516 13.49L14.7316 13.95C13.7605 13.3992 12.8633 12.7271 12.0616 11.95C11.2845 11.1484 10.6124 10.2512 10.0616 9.28L10.5216 9.07C10.965 8.85292 11.3124 8.47953 11.497 8.02169C11.6816 7.56385 11.6904 7.05391 11.5216 6.59C11.3628 6.15903 11.2325 5.71808 11.1316 5.27C11.0816 5.05 11.0416 4.82 11.0116 4.6C10.8902 3.89562 10.5213 3.25774 9.97126 2.80124C9.42126 2.34474 8.72633 2.09961 8.01164 2.11H5.00164C4.57888 2.10945 4.16079 2.19825 3.77475 2.37058C3.38872 2.54292 3.04347 2.7949 2.76164 3.11C2.47396 3.43365 2.25975 3.81575 2.13374 4.23004C2.00773 4.64432 1.9729 5.08098 2.03164 5.51C2.57522 9.67214 4.47685 13.5387 7.44164 16.51C10.413 19.4748 14.2795 21.3764 18.4416 21.92C18.5714 21.9299 18.7018 21.9299 18.8316 21.92C19.5691 21.9211 20.281 21.6505 20.8316 21.16C21.1467 20.8782 21.3987 20.5329 21.5711 20.1469C21.7434 19.7609 21.8322 19.3428 21.8316 18.92V15.92C21.8262 15.229 21.5825 14.5611 21.1416 14.0291C20.7006 13.4971 20.0896 13.1336 19.4116 13ZM19.9016 19C19.9013 19.1395 19.8718 19.2775 19.8149 19.4049C19.7581 19.5324 19.6752 19.6465 19.5716 19.74C19.462 19.8399 19.3316 19.9141 19.1898 19.9573C19.048 20.0006 18.8983 20.0117 18.7516 19.99C15.0199 19.5026 11.5519 17.802 8.88164 15.15C6.20911 12.4775 4.49367 8.99737 4.00164 5.25C3.97991 5.10333 3.99107 4.95367 4.03431 4.81185C4.07755 4.67003 4.15178 4.5396 4.25164 4.43C4.34626 4.32515 4.46201 4.24154 4.59129 4.18466C4.72056 4.12778 4.86041 4.09892 5.00164 4.1H8.00164C8.2328 4.09435 8.45878 4.16898 8.6411 4.3112C8.82343 4.45341 8.95084 4.65442 9.00164 4.88C9.00164 5.15 9.09164 5.43 9.15164 5.7C9.26721 6.22386 9.42096 6.73857 9.61164 7.24L8.21164 7.9C7.971 8.01046 7.784 8.21185 7.69164 8.46C7.59162 8.70346 7.59162 8.97654 7.69164 9.22C9.13084 12.3028 11.6089 14.7808 14.6916 16.22C14.9351 16.32 15.2082 16.32 15.4516 16.22C15.6998 16.1276 15.9012 15.9406 16.0116 15.7L16.6416 14.3C17.1575 14.4881 17.6854 14.6418 18.2216 14.76C18.4816 14.82 18.7616 14.87 19.0316 14.91C19.2572 14.9608 19.4582 15.0882 19.6004 15.2705C19.7427 15.4529 19.8173 15.6788 19.8116 15.91L19.9016 19ZM14.0016 2C13.7716 2 13.5316 2 13.3016 2C13.0364 2.02254 12.791 2.14952 12.6194 2.353C12.4478 2.55647 12.3641 2.81978 12.3866 3.085C12.4092 3.35022 12.5362 3.59562 12.7396 3.76721C12.9431 3.93881 13.2064 4.02254 13.4716 4H14.0016C15.5929 4 17.1191 4.63214 18.2443 5.75736C19.3695 6.88258 20.0016 8.4087 20.0016 10C20.0016 10.18 20.0016 10.35 20.0016 10.53C19.9795 10.7938 20.0628 11.0556 20.2334 11.2581C20.404 11.4606 20.6479 11.5871 20.9116 11.61H20.9916C21.242 11.611 21.4836 11.5181 21.6687 11.3496C21.8539 11.1811 21.9691 10.9493 21.9916 10.7C21.9916 10.47 21.9916 10.23 21.9916 10C21.9916 7.88 21.1502 5.84668 19.652 4.34668C18.1539 2.84667 16.1216 2.00265 14.0016 2ZM16.0016 10C16.0016 10.2652 16.107 10.5196 16.2945 10.7071C16.4821 10.8946 16.7364 11 17.0016 11C17.2669 11 17.5212 10.8946 17.7087 10.7071C17.8963 10.5196 18.0016 10.2652 18.0016 10C18.0016 8.93913 17.5802 7.92172 16.8301 7.17157C16.0799 6.42143 15.0625 6 14.0016 6C13.7364 6 13.4821 6.10536 13.2945 6.29289C13.107 6.48043 13.0016 6.73478 13.0016 7C13.0016 7.26522 13.107 7.51957 13.2945 7.70711C13.4821 7.89464 13.7364 8 14.0016 8C14.5321 8 15.0408 8.21071 15.4158 8.58579C15.7909 8.96086 16.0016 9.46957 16.0016 10Z" fill="black"/>
</svg>
